PathFileType	4	(X/Y/Z)	/Users/niels/Desktop/University/Third Semester/Perception and Action/Exam/Gymnastics Motion Tracking/Code for Gym Tracking/Analyzed Data/Webcam_Backflip/id7_2_baseline_Sports2D/id7_2_baseline_Sports2D_px_person00.trc
DataRate	CameraRate	NumFrames	NumMarkers	Units	OrigDataRate	OrigDataStartFrame	OrigNumFrames
29.808917197452228	29.808917197452228	10	22	m	29.808917197452228	98	157
Frame#	Time	Hip			RHip			RKnee			RAnkle			RBigToe			RSmallToe			RHeel			LHip			LKnee			LAnkle			LBigToe			LSmallToe			LHeel			Neck			Head			Nose			RShoulder			RElbow			RWrist			LShoulder			LElbow			LWrist		
		X1	Y1	Z1	X2	Y2	Z2	X3	Y3	Z3	X4	Y4	Z4	X5	Y5	Z5	X6	Y6	Z6	X7	Y7	Z7	X8	Y8	Z8	X9	Y9	Z9	X10	Y10	Z10	X11	Y11	Z11	X12	Y12	Z12	X13	Y13	Z13	X14	Y14	Z14	X15	Y15	Z15	X16	Y16	Z16	X17	Y17	Z17	X18	Y18	Z18	X19	Y19	Z19	X20	Y20	Z20	X21	Y21	Z21	X22	Y22	Z22
98	3.2876068376068375	0.8912514885347512	-0.5029507430426218	0.0	0.8903036449023777	-0.5027439340421512	0.0	0.8946773426323992	-0.6175256583885397	0.0	0.8771110229162966	-0.7253406574002781	0.0	0.9115570702085682	-0.7556608577741973	0.0	0.8986458378624335	-0.7591408709357226	0.0	0.866708128661073	-0.7429301076279057	0.0	0.8949714352487652	-0.49992743140356577	0.0	0.8971661191668985	-0.6169063721425078	0.0	0.8875727605962606	-0.716731528558389	0.0	0.9216383641077562	-0.7448635743725718	0.0	0.9191637536276482	-0.7409451893372102	0.0	0.8775675012145188	-0.7320037163164496	0.0	0.8979677402815935	-0.358907885549293	0.0	0.9184174178281078	-0.2883002763661212	0.0	0.9289399703724059	-0.3240975903214257	0.0	0.8949277459001503	-0.37599879812511977	0.0	0.8819772034199883	-0.40230924811436825	0.0	0.900233583506774	-0.3809466551181835	0.0	0.8844468488740982	-0.3689224504845158	0.0	0.8456716417098398	-0.3989017624773605	0.0	0.8727813715661639	-0.37177239380683896	0.0
99	3.321153846153846	0.8923708669062428	-0.5147360572573817	0.0	0.8911373018544542	-0.5148932330516068	0.0	0.8950016407601056	-0.6287991330495932	0.0	0.8739086497568369	-0.7364961466409667	0.0	0.9078257157716818	-0.7653489928676641	0.0	0.8953865865124709	-0.7686518798040274	0.0	0.8632532684849987	-0.7537367241085472	0.0	0.8966837757244885	-0.5121825963283329	0.0	0.897282056066636	-0.6282811974227809	0.0	0.8840040465223302	-0.7285741408381051	0.0	0.9172920050406626	-0.7561480991025599	0.0	0.9150150175334109	-0.7524445043473806	0.0	0.8728934534795824	-0.7438241192423786	0.0	0.8981415456579055	-0.36996826953692824	0.0	0.9173218451780609	-0.29985162547318694	0.0	0.9276690461719762	-0.3354031103901931	0.0	0.8935116557442184	-0.3876041306576286	0.0	0.8766285134567875	-0.4204816649094857	0.0	0.8904563701228775	-0.4133402976750186	0.0	0.885341786160746	-0.38027095157197716	0.0	0.8451110363946096	-0.40816461254708064	0.0	0.8678903288621513	-0.3840777963007079	0.0
100	3.3547008547008548	0.8935832990466748	-0.5306840544931033	0.0	0.891826428684995	-0.5310428915522409	0.0	0.8946046706274181	-0.6437631153400806	0.0	0.8704078364833561	-0.7512643023929146	0.0	0.9039857167907557	-0.7777824877917209	0.0	0.8919524257539546	-0.7807982728368239	0.0	0.8596307464581375	-0.7675721945815693	0.0	0.8985409140483457	-0.5286326856218745	0.0	0.8974237669047042	-0.643318646020645	0.0	0.880887286995329	-0.7438168886890221	0.0	0.9134892617720143	-0.7696969182098907	0.0	0.9112698244259739	-0.7662338913962354	0.0	0.869563183850361	-0.7586003182395219	0.0	0.8987638629989168	-0.3851575720593645	0.0	0.9158712602300937	-0.3159991031458756	0.0	0.9261312624145812	-0.35117033306546164	0.0	0.8926352384783659	-0.40340678718723905	0.0	0.8734050409936618	-0.44177228882311026	0.0	0.8810561896231587	-0.4549379114567633	0.0	0.8869813680251469	-0.39605915440669753	0.0	0.847502762585143	-0.42174074965410135	0.0	0.8638065822013729	-0.4000789319636396	0.0
101	3.388247863247863	0.8947813234391157	-0.5498876137324988	0.0	0.8924076920671251	-0.550366540055737	0.0	0.8934962479007192	-0.6616525846930713	0.0	0.8672214111950675	-0.7687231510862779	0.0	0.9005640606042549	-0.7922794588550932	0.0	0.8887828603865859	-0.7948701723998519	0.0	0.856490909884102	-0.7835419948205791	0.0	0.9001396799940016	-0.5483899312665501	0.0	0.8972818409004323	-0.6612099344298427	0.0	0.8782521375527266	-0.7616317488003009	0.0	0.910359884667347	-0.7848856397534959	0.0	0.9079622615906657	-0.7816329554839455	0.0	0.8675179016778238	-0.7754902464492358	0.0	0.8998441505261067	-0.40354278436695795	0.0	0.9143383183491247	-0.33578554512743364	0.0	0.9246682928709965	-0.37037141964042747	0.0	0.8923081437404918	-0.42269975055808906	0.0	0.8720189245994072	-0.46681877799961324	0.0	0.8732135532507166	-0.5008151441759444	0.0	0.8893939395046405	-0.4155763117778711	0.0	0.8527508392430466	-0.4398991939950776	0.0	0.8607841915115764	-0.4210359012407844	0.0
102	3.4217948717948716	0.8958095742941097	-0.5704723626441198	0.0	0.8929080428170649	-0.5710588479738833	0.0	0.8919291362408147	-0.6808646280839498	0.0	0.8648724931275105	-0.7871945916917575	0.0	0.8980012311821552	-0.8074415129164637	0.0	0.8863014573181424	-0.8096049074178956	0.0	0.854389418930582	-0.8002666002282361	0.0	0.9011426429803805	-0.5695503839167965	0.0	0.8965638473979329	-0.6803821336458928	0.0	0.8759015722364568	-0.7804395875784582	0.0	0.9076935489356096	-0.8005213341860111	0.0	0.9048913887815029	-0.7974133196024996	0.0	0.8660446229318735	-0.7930814302190795	0.0	0.9012253388047834	-0.4233149844524062	0.0	0.9131226728442685	-0.3571252233818746	0.0	0.9236083950121649	-0.39101716998173636	0.0	0.8923981698689061	-0.4436873723933657	0.0	0.8721267053037466	-0.4943548333021451	0.0	0.8680884685941649	-0.5449197479338254	0.0	0.8921965688792712	-0.4369290300623726	0.0	0.859859047917896	-0.46146374378400373	0.0	0.8595938759253461	-0.4485550483823499	0.0
103	3.45534188034188	0.896530936423125	-0.5899009808398512	0.0	0.8933101619789442	-0.5905855135867021	0.0	0.8902636095010799	-0.699143160755865	0.0	0.8635392299798131	-0.8044454108557134	0.0	0.8964227098457658	-0.8214304946146349	0.0	0.884608290564397	-0.8234131985130054	0.0	0.8535078897229869	-0.8159785773303928	0.0	0.9014758764706139	-0.5894962086934352	0.0	0.8952238645244434	-0.6986404263404766	0.0	0.8736897267742098	-0.7980614997672282	0.0	0.9052877990013816	-0.8149143952041525	0.0	0.9019469206155563	-0.811905692718521	0.0	0.8644515415959814	-0.809477317977973	0.0	0.9027010643299685	-0.44206603700278435	0.0	0.9126085988474097	-0.3772451861603456	0.0	0.9231594455664677	-0.41051626057632906	0.0	0.8927195999732911	-0.46370714337631713	0.0	0.8734732044275982	-0.5209819553448793	0.0	0.8663315854223947	-0.5822595840825567	0.0	0.894892470173981	-0.4574238501686786	0.0	0.8675145434416738	-0.4845994167183249	0.0	0.8613004856310169	-0.4832787129612583	0.0
104	3.488888888888889	0.8969552312610316	-0.6058075613962675	0.0	0.8935820865733185	-0.606564490058267	0.0	0.8887582191247211	-0.7142525005932293	0.0	0.8629955825921978	-0.8183634722034042	0.0	0.8956437770507576	-0.8326948477996945	0.0	0.8833979446684879	-0.83487244522867	0.0	0.8535444487917978	-0.8289764149938303	0.0	0.9013777765989891	-0.6058041132336002	0.0	0.8935702046000851	-0.7137604936287278	0.0	0.8717442808726973	-0.8123808943243053	0.0	0.9032775433726095	-0.8265165841186061	0.0	0.8993979754574405	-0.8235960055427884	0.0	0.8626524477227692	-0.8228444358832347	0.0	0.9041738440538719	-0.4575007702179165	0.0	0.9129768215340086	-0.39363880817173696	0.0	0.9233538926700643	-0.42650477023207045	0.0	0.8931205965334306	-0.48015624395495654	0.0	0.8756776492363836	-0.5429870064175396	0.0	0.8677519534665777	-0.6098958299327608	0.0	0.8974199186041965	-0.47456739577176643	0.0	0.8748827973327522	-0.5075290179849073	0.0	0.8665378374747584	-0.5230571473390796	0.0
105	3.5224358974358974	0.8972685639829096	-0.6165833750557924	0.0	0.8937440904818322	-0.6173701621376482	0.0	0.8875793663933369	-0.7244649535740364	0.0	0.8628440908801058	-0.8274686239374098	0.0	0.8953144824741058	-0.8403576101457658	0.0	0.8822855412393543	-0.8429668777576518	0.0	0.853961344087451	-0.8379458314553195	0.0	0.9012546688139575	-0.6168492627315026	0.0	0.8921319463784618	-0.7240005265886766	0.0	0.8703538932222811	-0.8218695657673747	0.0	0.9019808874632003	-0.834375883740853	0.0	0.8977049300906238	-0.8315091467952247	0.0	0.8610331446742907	-0.8318638255719918	0.0	0.9056578328970251	-0.4679668245019339	0.0	0.9142084164773102	-0.40461193998430556	0.0	0.9240775475602944	-0.43736808492274737	0.0	0.8935378877797164	-0.4912039286628792	0.0	0.8781632541304788	-0.5579094302115718	0.0	0.8713571256681576	-0.626911951910824	0.0	0.9000917276722673	-0.4866045212764828	0.0	0.8815486963206437	-0.5277749126794459	0.0	0.8747151190265089	-0.5619282251690338	0.0
106	3.555982905982906	0.8977286398741282	-0.6214072162658364	0.0	0.8939233772774625	-0.6221972503513652	0.0	0.886949867188972	-0.7287583008017267	0.0	0.8628158376136338	-0.830958599777912	0.0	0.8951170652519612	-0.8440333061236268	0.0	0.8812384739270319	-0.8470305742983778	0.0	0.8543602029650729	-0.8420126554480286	0.0	0.9014672576000561	-0.6218457992338604	0.0	0.8914095064390672	-0.7283386344310405	0.0	0.869699731498898	-0.825681349698824	0.0	0.9015512759157173	-0.8380688269276089	0.0	0.897107410447093	-0.8351363137681703	0.0	0.8599431961942383	-0.8357784881616742	0.0	0.9071834236483931	-0.4725583786316537	0.0	0.9161676035486918	-0.4093078121126327	0.0	0.925150636466106	-0.4422670417398182	0.0	0.8940114001110665	-0.4958902912874305	0.0	0.8803787479383636	-0.5647435481238947	0.0	0.8758199712693986	-0.6337890409903573	0.0	0.9031027693535072	-0.4925101065232416	0.0	0.8873799090546759	-0.5421470619431537	0.0	0.8839183562278323	-0.5922808038044325	0.0
107	3.589529914529914	0.898510859250999	-0.620094420233811	0.0	0.8943179950886574	-0.6209469554266204	0.0	0.8871658549853914	-0.7269180947742311	0.0	0.8628458768116519	-0.8285940676087602	0.0	0.8949165058821958	-0.8434790472857587	0.0	0.8805552722648136	-0.8466183632608052	0.0	0.8545897227030661	-0.8407402499183372	0.0	0.9021829512704409	-0.6206835685202223	0.0	0.8916983349728979	-0.7265601257987283	0.0	0.8697785409433066	-0.823560958406088	0.0	0.9019006839621954	-0.8374081528202936	0.0	0.8974995915166728	-0.8342211282736552	0.0	0.8595023469183738	-0.8342739950751823	0.0	0.908749612797634	-0.47107142997392154	0.0	0.9186314242445601	-0.40765985849841463	0.0	0.9264118246293664	-0.4410629029239917	0.0	0.8946476902758217	-0.49403440575740254	0.0	0.8820330246101229	-0.5636057318698161	0.0	0.8800477807055919	-0.6317810480870312	0.0	0.9062993491799219	-0.49197277515141424	0.0	0.892438042335837	-0.5483504126988378	0.0	0.891976042261746	-0.609117896011529	0.0
